<svg preserveAspectRatio="none" width="100%" height="100%" overflow="visible" style="display: block;" viewBox="0 0 16 16" fill="none" xmlns="http://www.w3.org/2000/svg">
<g id="Icons/Agent.studio">
<path id="Vector" d="M7.81012 1.0577C8.17414 1.0577 8.49629 1.25856 8.65972 1.58016L10.5484 5.36238C11.6371 4.85838 13.0005 4.96361 13.9644 5.95613C15.15 7.08575 15.1508 9.13887 13.9654 10.2686L13.9644 10.2677C13.7531 10.4883 13.5188 10.6624 13.2711 10.8009L15.1246 14.5079L15.1363 14.5333L15.1216 14.5567L14.898 14.919L14.8834 14.9425H14.1099L14.0953 14.9151L12.2056 11.1348C11.2887 11.2398 10.3475 10.9138 9.67926 10.2872L9.40387 10.2559L2.33746 14.7843C1.97346 15.0216 1.50885 14.9845 1.18707 14.6944C0.865397 14.4043 0.780696 13.9454 0.970272 13.5606L6.96051 1.58016C7.12389 1.25865 7.44622 1.05781 7.81012 1.0577ZM2.19488 13.5723L8.815 9.33309L8.90289 9.06941C8.83069 8.84862 8.78397 8.61433 8.76715 8.36824L8.76031 8.11238C8.74558 7.24701 9.09542 6.51429 9.63433 5.98738L7.81012 2.34285L2.19488 13.5723ZM12.7056 6.41219C12.1846 6.1228 11.533 6.10939 10.9976 6.37215L10.9966 6.37313C10.7008 6.51386 10.4391 6.74683 10.2593 7.06258H10.2584C10.0933 7.3442 9.99577 7.69079 9.9859 8.11336C9.99856 8.74305 10.2194 9.21615 10.5445 9.53523C10.8704 9.85505 11.3033 10.0225 11.7418 10.0372H11.7427C12.0785 10.0518 12.414 9.97391 12.7105 9.80379H12.7115C13.2244 9.51815 13.6151 8.95553 13.6353 8.11336C13.6181 7.2652 13.2248 6.70054 12.7056 6.41219Z" fill="var(--fill-0, #211E20)" stroke="var(--stroke-0, black)" stroke-width="0.1"/>
</g>
</svg>
