<svg preserveAspectRatio="none" width="100%" height="100%" overflow="visible" style="display: block;" viewBox="0 0 20 20" fill="none" xmlns="http://www.w3.org/2000/svg">
<g id="Icons/Arrow.up">
<path id="Vector" d="M10.4848 2.40036L10.5141 2.42966L15.8148 7.72946L15.8852 7.79977L15.8148 7.87009L14.8207 8.87009L14.7504 8.94138L14.6791 8.87106C13.2512 7.44314 11.923 5.92059 10.6947 4.31345L10.558 4.3613C10.7186 8.73934 10.7941 13.1227 10.8061 17.5V17.5996H9.19961V17.5C9.20564 13.1227 9.28121 8.73935 9.4418 4.3613L9.3041 4.31247C8.07578 5.91963 6.74864 7.44312 5.3207 8.87106L5.24941 8.94138L5.1791 8.87009L4.18496 7.87009L4.11465 7.79977L4.18594 7.72946L9.51504 2.40036H10.4848Z" fill="var(--fill-0, #211E20)" stroke="var(--stroke-0, #211E20)" stroke-width="0.2"/>
</g>
</svg>
