<svg preserveAspectRatio="none" width="100%" height="100%" overflow="visible" style="display: block;" viewBox="0 0 16 16" fill="none" xmlns="http://www.w3.org/2000/svg">
<g id="Icons/Arrow.up">
<path id="Vector" d="M8.39621 1.90037L8.42551 1.92966L12.6657 6.16892L12.7361 6.24021L12.6657 6.31052L11.8708 7.11033L11.8005 7.18162L11.7292 7.11033C10.5896 5.97065 9.52933 4.7559 8.54855 3.47361L8.46652 3.5029C8.59463 7.00075 8.65518 10.5028 8.66477 14L8.66574 14.0996H7.33957V14C7.34439 10.5028 7.40482 7.00075 7.53293 3.5029L7.44992 3.47361C6.46924 4.75571 5.40976 5.9708 4.27023 7.11033L4.19992 7.18162L4.12863 7.11033L3.33371 6.31052L3.2634 6.24021L7.60324 1.90037H8.39621Z" fill="var(--fill-0, #211E20)" stroke="var(--stroke-0, #211E20)" stroke-width="0.2"/>
</g>
</svg>
