<svg preserveAspectRatio="none" width="100%" height="100%" overflow="visible" style="display: block;" viewBox="0 0 14.2132 14.2151" fill="none" xmlns="http://www.w3.org/2000/svg">
<path id="Vector" d="M5.21333 0.0501953V0.1C5.21333 0.418515 5.20302 0.732324 5.18501 1.0502H8.42524C8.55511 1.05482 8.76351 1.05408 9.01509 1.0541C8.99711 0.736121 8.98774 0.418127 8.98774 0.1V0.0501953H10.2133V0.1C10.2133 0.413158 10.203 0.73064 10.185 1.04434C10.586 1.03985 10.9938 1.03925 11.3432 1.04824C11.7046 1.05754 12.0085 1.07713 12.1772 1.11563C13.4026 1.3566 14.1526 2.6364 14.1528 3.82461L14.1586 4.98574C14.1586 5.42073 14.157 5.89206 14.1557 6.36367C14.1532 7.30676 14.1511 8.25238 14.1586 8.91934V8.92031C14.1586 9.15528 14.1593 9.58544 14.1606 10.0141C14.1618 10.4426 14.1635 10.87 14.1635 11.1C14.1635 11.8663 13.9365 12.6351 13.5034 13.2113C13.0965 13.7524 12.5072 14.1235 11.7553 14.1615L11.603 14.1654L5.78266 14.1498H2.87837L2.65473 14.1596C1.5338 14.1578 0.383791 13.3674 0.134226 12.226V12.225C0.0798663 11.9501 0.0598155 11.7345 0.0531717 11.4975V4.09512C0.0531717 3.31221 0.27527 2.54954 0.705515 1.98281C1.13668 1.41493 1.77625 1.04525 2.60298 1.0502H4.01606C3.99805 0.73233 3.98774 0.418509 3.98774 0.1V0.0501953H5.21333ZM5.08735 2.16445C5.05729 2.48048 5.01502 2.79266 4.96235 3.10391L4.95552 3.14492H4.24555L4.23872 3.10293C4.19094 2.79703 4.14809 2.4907 4.11372 2.18008C3.86888 2.18243 3.62509 2.18554 3.3813 2.18789C3.12264 2.19039 2.86386 2.19223 2.60395 2.19473H2.60298C1.95659 2.19484 1.36861 2.70092 1.25825 3.31484L1.24262 3.43887C1.23038 3.58575 1.23273 3.84199 1.23774 4.10781C1.24271 4.37138 1.25096 4.64367 1.24848 4.81973L1.2729 7.0082C1.27728 7.74777 1.27564 8.48559 1.26313 9.18594L1.25337 10.64C1.25584 10.8775 1.24413 11.1395 1.24165 11.3695C1.23976 11.5455 1.2435 11.7026 1.2602 11.8236L1.28169 11.932V11.933C1.45982 12.6503 2.11451 13.049 2.86958 12.9906L2.87446 12.9896C5.69393 13.0395 8.79856 13.0547 11.603 13.0297C11.9543 13.0247 12.2961 12.8755 12.5502 12.642C12.8045 12.4083 12.9682 12.0935 12.9682 11.7602L12.9428 8.92129L12.934 7.84316C12.9326 6.74648 12.9521 5.60744 12.9633 4.5541C12.9659 4.09369 12.9992 3.69512 12.9409 3.34219C12.8834 2.99507 12.7372 2.69778 12.3803 2.44668C12.2097 2.33461 12.0627 2.27108 11.9028 2.23574C11.7418 2.20019 11.5651 2.19224 11.3334 2.19473H11.3325L10.0874 2.18008C10.053 2.4907 10.0101 2.79709 9.96235 3.10293L9.95552 3.14492H9.24555L9.23872 3.10293C9.19088 2.79667 9.1481 2.48559 9.11372 2.17422L8.42231 2.16543C7.31269 2.14077 6.20265 2.14978 5.08735 2.16445ZM10.6528 5.04824V6.14785H3.55317V5.04824H10.6528Z" fill="var(--fill-0, #211E20)" stroke="var(--stroke-0, black)" stroke-width="0.1"/>
</svg>
