<svg preserveAspectRatio="none" width="100%" height="100%" overflow="visible" style="display: block;" viewBox="0 0 16 16" fill="none" xmlns="http://www.w3.org/2000/svg">
<g id="Icons/Calendar" clip-path="url(#clip0_0_60)">
<path id="Vector" d="M6.10671 0.942665V0.99247C6.10671 1.31098 6.0964 1.62479 6.07839 1.94267H9.31863C9.44849 1.94729 9.6569 1.94655 9.90847 1.94657C9.8905 1.62859 9.88113 1.3106 9.88113 0.99247V0.942665H11.1067V0.99247C11.1067 1.30563 11.0963 1.62311 11.0784 1.93681C11.4793 1.93232 11.8871 1.93172 12.2366 1.94071C12.598 1.95001 12.9019 1.9696 13.0706 2.00809C14.2959 2.24907 15.046 3.52887 15.0462 4.71708L15.052 5.87821C15.052 6.3132 15.0503 6.78453 15.0491 7.25614C15.0466 8.19923 15.0445 9.14485 15.052 9.81181V9.81278C15.052 10.0477 15.0527 10.4779 15.054 10.9065C15.0552 11.3351 15.0569 11.7625 15.0569 11.9925C15.0569 12.7587 14.8299 13.5275 14.3968 14.1038C13.9899 14.6449 13.4006 15.016 12.6487 15.054L12.4964 15.0579L6.67605 15.0423H3.77175L3.54812 15.052C2.42718 15.0503 1.27717 14.2599 1.02761 13.1184V13.1175C0.97325 12.8426 0.953199 12.627 0.946556 12.3899V4.98759C0.946556 4.20468 1.16865 3.44201 1.5989 2.87528C2.03006 2.30739 2.66964 1.93772 3.49636 1.94267H4.90945C4.89143 1.6248 4.88113 1.31098 4.88113 0.99247V0.942665H6.10671ZM5.98074 3.05692C5.95067 3.37295 5.9084 3.68513 5.85574 3.99638L5.8489 4.03739H5.13894L5.1321 3.9954C5.08432 3.6895 5.04147 3.38317 5.0071 3.07255C4.76226 3.0749 4.51848 3.078 4.27468 3.08036C4.01603 3.08286 3.75724 3.0847 3.49734 3.0872H3.49636C2.84997 3.08731 2.26199 3.59339 2.15163 4.20731L2.13601 4.33134C2.12377 4.47822 2.12611 4.73446 2.13113 5.00028C2.1361 5.26384 2.14434 5.53614 2.14187 5.7122L2.16628 7.90067C2.17066 8.64024 2.16902 9.37806 2.15652 10.0784L2.14675 11.5325C2.14923 11.77 2.13751 12.0319 2.13503 12.262C2.13315 12.4379 2.13689 12.5951 2.15359 12.7161L2.17507 12.8245V12.8255C2.35321 13.5427 3.0079 13.9415 3.76296 13.8831L3.76784 13.8821C6.58732 13.932 9.69195 13.9472 12.4964 13.9222C12.8477 13.9172 13.1894 13.768 13.4436 13.5345C13.6979 13.3008 13.8615 12.9859 13.8616 12.6526L13.8362 9.81376L13.8274 8.73563C13.826 7.63895 13.8455 6.49991 13.8567 5.44657C13.8593 4.98616 13.8926 4.58759 13.8343 4.23466C13.7768 3.88754 13.6305 3.59025 13.2737 3.33915C13.1031 3.22708 12.9561 3.16355 12.7962 3.12821C12.6352 3.09266 12.4584 3.08471 12.2268 3.0872H12.2259L10.9807 3.07255C10.9464 3.38317 10.9035 3.68956 10.8557 3.9954L10.8489 4.03739H10.1389L10.1321 3.9954C10.0843 3.68914 10.0415 3.37806 10.0071 3.06669L9.3157 3.0579C8.20608 3.03324 7.09603 3.04225 5.98074 3.05692ZM11.5462 5.94071V7.04032H4.44656V5.94071H11.5462Z" fill="var(--fill-0, #211E20)" stroke="var(--stroke-0, #211E20)" stroke-width="0.1"/>
</g>
<defs>
<clipPath id="clip0_0_60">
<rect width="16" height="16" fill="white"/>
</clipPath>
</defs>
</svg>
