<svg preserveAspectRatio="none" width="100%" height="100%" overflow="visible" style="display: block;" viewBox="0 0 10.5099 10.5113" fill="none" xmlns="http://www.w3.org/2000/svg">
<g id="Vector">
<path d="M10.5099 8.25C10.5099 7.90504 10.5061 6.96754 10.5061 6.61504C10.4949 5.61382 10.5136 3.77625 10.5024 2.79383C10.5024 1.91445 9.94735 0.975038 9.0511 0.798788C8.80735 0.7425 8.1511 0.738825 7.52485 0.746325C7.53985 0.49875 7.54735 0.247537 7.54735 0H6.7036C6.7036 0.251325 6.7111 0.502537 6.7261 0.75375C6.51985 0.75375 6.34735 0.75375 6.24235 0.75H3.77485C3.78985 0.498787 3.79735 0.251325 3.79735 0H2.9536C2.9536 0.251325 2.9611 0.498787 2.9761 0.75H1.87735C0.662354 0.7425 0.00235422 1.83506 0.00235422 2.99633V7.905C0.00235422 8.45047 -0.0182333 8.67866 0.0623542 9.08621C0.257354 9.97875 1.2061 10.5825 2.07985 10.5H4.26232L8.62732 10.5112C9.83857 10.5225 10.5099 9.38576 10.5099 8.25ZM9.66985 6.61504L9.6886 8.745C9.6886 9.27004 9.17485 9.72746 8.62735 9.73496C6.5236 9.75371 4.19485 9.74246 2.07985 9.70504C1.4986 9.75 0.988604 9.44254 0.849854 8.88371C0.793604 8.68129 0.831104 8.26125 0.827354 7.905L0.834854 6.81379C0.853604 5.76379 0.838567 4.60125 0.823604 3.53996C0.827354 3.27758 0.801104 2.72625 0.819854 2.50129C0.857354 1.98 1.3411 1.53375 1.87735 1.53375C2.26735 1.53 2.6536 1.52625 3.0436 1.5225C3.06985 1.76621 3.1036 2.00625 3.1411 2.24633H3.60985C3.6511 2.00254 3.68485 1.75871 3.70735 1.51125C4.55485 1.5 5.3986 1.4925 6.24235 1.51125L6.7936 1.51875C6.81985 1.76254 6.8536 2.00625 6.8911 2.24633H7.35985C7.39735 2.00629 7.4311 1.76621 7.45735 1.5225L8.42485 1.53375C8.7736 1.53 8.9686 1.55629 9.2311 1.72875C9.7861 2.11875 9.6886 2.65875 9.68485 3.34125C9.6736 4.39504 9.6511 5.56125 9.66985 6.61504Z" fill="var(--fill-0, #211E20)"/>
<path d="M7.87705 3.74835H2.62705V4.49835H7.87705V3.74835Z" fill="var(--fill-0, #211E20)"/>
</g>
</svg>
