<svg preserveAspectRatio="none" width="100%" height="100%" overflow="visible" style="display: block;" viewBox="0 0 14.0026 14.0233" fill="none" xmlns="http://www.w3.org/2000/svg">
<path id="Vector" d="M10.9663 8.66328C12.7263 8.07833 14.0513 6.73333 14.0013 4.50333C14.0713 1.30333 11.3063 -0.0766723 8.50126 0.00332772C5.89626 -0.0716723 3.32626 1.11833 3.03126 3.85338C1.70126 4.29833 0.616258 5.15833 0.231258 6.46838C-0.953742 10.9933 2.60626 12.8933 6.55626 12.4483C7.55626 13.5533 9.05126 13.9933 10.5013 14.0033L11.5863 14.0233C10.8763 13.1833 10.0513 12.2683 9.72626 11.1883L9.83126 11.0934C10.4713 10.4434 10.8513 9.57333 10.9663 8.66328ZM8.50126 1.00333C10.7563 0.988378 12.8763 1.96448 12.8763 4.50333C12.8763 6.05863 12.1513 7.01833 10.9963 7.53828C10.8963 6.47833 10.4463 5.45833 9.65126 4.74828C8.37626 3.69828 6.16626 3.25828 4.19626 3.57328C4.59626 1.72328 6.55126 0.988378 8.50126 1.00333ZM8.70126 10.8283C8.64626 10.8783 8.63126 10.8933 8.63126 10.8933C8.64126 10.9583 8.67626 11.1084 8.68626 11.1583C8.80961 11.6816 9.01991 12.1832 9.28626 12.6538L9.15291 12.8397C8.27771 12.6212 7.50796 12.1012 6.95126 11.4133L6.69916 11.4433C4.86916 11.6383 2.30626 11.4283 1.43631 9.59333C0.721308 7.92328 1.16631 5.65328 3.01131 4.95333C3.06131 4.93333 3.11131 4.91328 3.16631 4.89833C3.46631 4.78828 3.78631 4.70333 4.12131 4.63833C6.64131 4.14833 9.88416 4.83923 9.88211 7.80598C9.88411 7.87823 9.88141 7.96888 9.87636 8.09333C9.86156 8.39228 9.85636 8.66828 9.79636 8.93328C9.63641 9.65323 9.24126 10.2633 8.70126 10.8283Z" fill="var(--fill-0, #211E20)"/>
</svg>
