<!-- Figma App — Arcade v0.3 SOR: Icons/Clock `5906:39439` (nav row `5906:38856`) -->
<svg preserveAspectRatio="none" width="100%" height="100%" overflow="visible" style="display: block;" viewBox="0 0 16 16" fill="none" xmlns="http://www.w3.org/2000/svg">
<g id="Icons/Clock" clip-path="url(#clip0_0_4)">
<path id="Vector" d="M0.959117 7.99995C0.958504 1.75327 8.57834 -1.4026 12.9943 3.0146H12.9933C15.7228 5.63266 15.7233 10.3659 12.9933 12.9843C8.57705 17.4017 0.95806 14.2464 0.959117 7.99995ZM12.171 3.83687C8.49854 0.0441453 2.12482 2.77347 2.18373 7.99995V8.00093C2.12557 13.2271 8.49896 15.9563 12.171 12.164L12.172 12.163C14.3893 9.94667 14.3895 6.05319 12.172 3.83687H12.171ZM8.68373 3.45015L8.68177 3.50191C8.63704 4.95781 8.51703 6.40842 8.32435 7.85445C8.68459 8.09142 9.02304 8.35257 9.3556 8.62495L9.69447 8.90718L9.69545 8.90816C10.145 9.31763 10.6027 9.73495 10.9953 10.208L11.0245 10.2431L10.9923 10.2753L10.1974 11.0751L10.1583 11.1142L10.1232 11.0712C9.34471 10.1232 8.51134 9.22999 7.62318 8.39156L7.6222 8.39058L7.47279 8.24605L7.45716 8.2314V3.45015H8.68373Z" fill="#211E20" stroke="#211E20" stroke-width="0.1"/>
</g>
<defs>
<clipPath id="clip0_0_4">
<rect width="16" height="16" fill="white"/>
</clipPath>
</defs>
</svg>
