<svg preserveAspectRatio="none" width="100%" height="100%" overflow="visible" style="display: block;" viewBox="0 0 16 16" fill="none" xmlns="http://www.w3.org/2000/svg">
<g id="Leading Icon">
<path id="Vector" d="M12.0054 4.8624L11.9702 4.89755C11.3843 5.4935 10.7686 6.05931 10.1538 6.62412L10.1529 6.62509C9.65595 7.06679 9.16606 7.50446 8.65384 7.93076V8.07333C9.80749 9.03634 10.9142 10.0466 11.9702 11.1026L12.0054 11.1378L11.1402 12.003L11.105 11.9688C10.5038 11.3876 9.94314 10.771 9.37845 10.1563L9.37747 10.1554C8.93595 9.6587 8.49372 9.1651 8.06693 8.65244H7.92337C6.96956 9.80528 5.96016 10.9076 4.89505 11.9679L4.8599 12.003L3.99466 11.1378L4.02884 11.1026C4.61484 10.5066 5.23143 9.94088 5.84622 9.37607L5.8472 9.37509C6.34391 8.93816 6.83381 8.49554 7.34622 8.06845V7.9249C6.19286 6.96207 5.08559 5.95332 4.02982 4.89755L3.99466 4.8624L4.82474 4.03232L4.85892 3.99716L4.89505 4.03134C5.4963 4.61255 6.05725 5.23453 6.62162 5.84384H6.62259C7.06425 6.3407 7.50623 6.83489 7.93314 7.34775H8.07669C9.03051 6.19485 10.0399 5.09261 11.105 4.03232L11.1402 3.99716L12.0054 4.8624Z" fill="var(--fill-0, #211E20)" stroke="var(--stroke-0, #211E20)" stroke-width="0.1"/>
</g>
</svg>
