<svg preserveAspectRatio="none" width="100%" height="100%" overflow="visible" style="display: block;" viewBox="0 0 80 14" fill="none" xmlns="http://www.w3.org/2000/svg">
<g id="Vector">
<path d="M76.6999 11.154H74.9438V2.2467H76.6999V4.90268C77.0621 3.00954 77.8507 2.2467 79.4051 2.2467H80V4.1175H79.1506C77.4094 4.1175 76.6987 4.79323 76.6987 6.44847V11.1528L76.6999 11.154Z" fill="#161616"/>
<path d="M61.6691 11.4337C61.0352 11.4337 60.4964 11.2561 60.0632 10.9032C59.545 10.481 59.1943 9.80636 59.0464 8.9497L58.2268 4.19619L56.8891 4.4151L56.6346 2.94191L57.4175 2.81347C57.5654 2.78889 57.6949 2.70959 57.7832 2.5912C57.8703 2.4717 57.9047 2.3265 57.8795 2.18242L57.5528 0.285926L59.2974 0L59.5129 1.24646C59.6023 1.76805 59.3593 2.12769 59.1404 2.33767C59.0223 2.45047 58.8997 2.53201 58.8057 2.58674L62.609 1.96351L62.8635 3.4367L59.9737 3.91026L60.7544 8.43705C60.8415 8.93853 61.0054 9.28031 61.2564 9.48246C61.5201 9.69356 61.8857 9.75834 62.3752 9.67792C62.8761 9.59639 63.2739 9.4255 63.706 9.22781L63.7358 9.21441L64.2264 10.7446L64.2046 10.7557C63.5776 11.0651 63.1123 11.2472 62.3087 11.3778C62.0863 11.4147 61.8743 11.4326 61.6714 11.4326" fill="#161616"/>
<path d="M39.0793 14H37.3083V2.24688H39.0793V4.77442C39.5148 2.91367 40.6714 1.97101 42.5158 1.97101C44.9367 1.97101 46.3249 3.68768 46.3249 6.67985C46.3249 9.67202 44.9081 11.4468 42.5353 11.4468C40.6393 11.4468 39.477 10.4941 39.0793 8.61432V14ZM41.8865 3.5436C40.1292 3.5436 39.0804 4.69512 39.0804 6.62289V6.75692C39.0804 8.66234 40.182 9.89428 41.8865 9.89428C43.591 9.89428 44.5745 8.75281 44.5745 6.67985C44.5745 4.60689 43.6701 3.54248 41.8865 3.54248" fill="#161616"/>
<path d="M35.749 11.1545H33.9929V5.83358C33.9929 4.97022 33.7121 3.52049 31.8345 3.52049C30.287 3.52049 29.3631 4.38497 29.3631 5.83358V11.1545H27.607V5.83358C27.607 4.97022 27.3262 3.52049 25.4486 3.52049C23.9011 3.52049 22.9772 4.38497 22.9772 5.83358V11.1545H21.2211V2.24946H22.9772V4.45086C23.3842 2.82131 24.4788 1.9613 26.1513 1.9613C28.0036 1.9613 29.0972 2.90843 29.3161 4.70105C29.6382 2.85705 30.6791 1.9613 32.4971 1.9613C33.9803 1.9613 35.7479 2.55995 35.7479 5.41363V11.1534L35.749 11.1545Z" fill="#161616"/>
<path d="M15.8957 11.4213C15.2114 11.5062 14.4663 11.4336 13.6834 11.1912C12.3205 10.7702 11.3243 10.0006 10.8028 8.96637C10.2858 7.93882 10.2468 6.67449 10.6905 5.30852C11.1306 3.95596 11.9238 2.95522 12.9864 2.41687C14.0273 1.88858 15.2756 1.82492 16.5961 2.23259C19.2818 3.06133 20.4487 5.34427 19.5695 8.04939C18.9253 10.0308 17.5945 11.2113 15.8957 11.4224M14.7391 3.59185C13.6524 3.72588 12.7939 4.50324 12.3697 5.80778C11.7553 7.69869 12.4213 9.14731 14.1534 9.6823C15.0096 9.947 15.8097 9.87887 16.4677 9.48573C17.1096 9.10263 17.6048 8.42132 17.9005 7.5144C18.4874 5.70726 17.7939 4.25752 16.0883 3.73035C15.6126 3.58403 15.1598 3.53936 14.7402 3.59185" fill="#161616"/>
<path d="M49.5604 7.93165H48.0026L47.6908 2.24887H49.6945L49.5604 7.93165Z" fill="#161616"/>
<path d="M53.3125 2.24887H55.3161L55.0044 7.93165H53.4466L53.3125 2.24887Z" fill="#161616"/>
<path d="M7.35222 7.9288C7.02897 8.90273 6.44552 9.85545 4.78227 9.85545C3.88359 9.85545 3.13507 9.56952 2.61695 9.02783C2.09196 8.47943 1.81341 7.67861 1.81341 6.7125C1.81341 5.68718 2.08622 4.8886 2.62383 4.33685C3.1259 3.82196 3.85149 3.55056 4.72381 3.55056C6.10851 3.55056 6.97739 4.20394 7.37973 5.54645L7.38546 5.56656H9.17595L9.17022 5.53305C8.72661 3.12614 7.27886 1.95563 4.74329 1.95563C1.86155 1.95674 0 3.81638 0 6.69351C0 8.16223 0.455072 9.37742 1.31478 10.2084C2.155 11.0204 3.36088 11.4493 4.80175 11.4493C7.2204 11.4493 8.6842 10.2598 9.15875 7.9288H7.35108H7.35222Z" fill="#161616"/>
<path d="M69.2228 1.94786C67.8198 1.94786 66.638 2.39127 65.8024 3.22894C64.9518 4.08225 64.5025 5.30972 64.5025 6.77844C64.5025 9.66339 66.3193 11.4549 69.2435 11.4549C71.4317 11.4549 72.8944 10.4575 73.4297 8.59787H71.6633C71.2277 9.49697 70.4368 9.93256 69.2435 9.93256C67.5137 9.93256 66.4718 8.97538 66.3056 7.25871H73.4469L73.4492 7.24419C73.479 6.80525 73.4893 6.46906 73.4893 6.16191C73.4893 3.56289 71.8547 1.94786 69.224 1.94786M69.1632 3.4512C70.7864 3.4512 71.6793 4.25314 71.8203 5.85253H66.3331C66.5818 4.27547 67.5584 3.4512 69.1632 3.4512Z" fill="#161616"/>
</g>
</svg>
