<svg preserveAspectRatio="none" width="100%" height="100%" overflow="visible" style="display: block;" viewBox="0 0 6.75014 5.16276" fill="none" xmlns="http://www.w3.org/2000/svg">
<g id="Group 2147223673">
<path id="Vector" d="M1.65416 5.16276C0.881004 5.16276 0.242984 4.55785 0.201825 3.78579L0.0479374 0.899201C0.0218855 0.410524 0.411106 0 0.900477 0C1.37966 0 1.765 0.394289 1.754 0.873348L1.65554 5.16141C1.65553 5.16216 1.65491 5.16276 1.65416 5.16276Z" fill="var(--fill-0, white)"/>
<path id="Vector_2" d="M4.97607 0C5.9402 0 6.70702 0.808788 6.65569 1.77155L6.51104 4.48472C6.49078 4.86489 6.17661 5.16276 5.79589 5.16276C5.40677 5.16276 5.08885 4.85206 5.07991 4.46304L4.97747 0.00136353C4.97745 0.000605457 4.97683 0 4.97607 0Z" fill="var(--fill-0, white)"/>
</g>
</svg>
