<svg preserveAspectRatio="none" width="100%" height="100%" overflow="visible" style="display: block;" viewBox="0 0 16 16" fill="none" xmlns="http://www.w3.org/2000/svg">
<g id="Icons/Plus.circles.cross" clip-path="url(#clip0_0_16)">
<path id="Vector" d="M0.954141 11.7507C0.911959 8.86028 4.57306 7.34373 6.58695 9.4177L6.70316 9.53489C7.86415 10.7801 7.82492 12.8962 6.58695 14.0837L6.58793 14.0847C4.57401 16.1605 0.910002 14.6431 0.954141 11.7507ZM14.1407 8.5681L14.9707 9.39817L14.9356 9.43431C14.1459 10.2287 13.3061 10.9774 12.4258 11.6814V11.8249C13.3063 12.5247 14.1459 13.2737 14.9356 14.0681L14.9707 14.1033L14.9356 14.1384L14.1407 14.9343L14.1045 14.9695L14.0694 14.9343C13.2704 14.1353 12.5264 13.2996 11.8272 12.4197H11.6827C10.983 13.2996 10.2345 14.1353 9.43559 14.9343L9.39945 14.9695L9.3643 14.9343L8.56938 14.1384L8.53422 14.1033L8.56938 14.0681C9.36376 13.2738 10.2035 12.5247 11.084 11.8249V11.6814C10.2037 10.9812 9.36358 10.2285 8.56938 9.43431L8.53422 9.39817L9.39945 8.53294L9.43559 8.5681C10.2345 9.36708 10.983 10.203 11.6827 11.0827H11.8262C12.5255 10.2027 13.2703 9.36725 14.0694 8.5681L14.1045 8.53294L14.1407 8.5681ZM4.25395 9.57591C3.74248 9.57601 3.23202 9.75732 2.84574 10.1189C2.46006 10.4799 2.19571 11.0231 2.17973 11.7527C2.19621 12.4813 2.46051 13.0238 2.84574 13.3845C3.23213 13.7461 3.74337 13.9275 4.25492 13.9275C4.76634 13.9273 5.27689 13.7461 5.66313 13.3845C6.04839 13.0238 6.31277 12.4812 6.32914 11.7527C6.31305 11.0231 6.04867 10.4799 5.66313 10.1189C5.27674 9.7573 4.76548 9.57585 4.25395 9.57591ZM4.80473 0.953837V3.70384H7.55473V4.80345H4.80473V7.55345H3.70512V4.80345H0.955118V3.70384H3.70512V0.953837H4.80473ZM8.45414 4.25071C8.41196 1.36029 12.073 -0.156182 14.087 1.9177L14.2032 2.03489C15.3642 3.28011 15.325 5.3962 14.087 6.58372L14.0879 6.5847C12.074 8.66043 8.41 7.14309 8.45414 4.25071ZM11.7539 2.07591C11.2425 2.07601 10.732 2.25732 10.3457 2.61888C9.96006 2.97989 9.69571 3.52313 9.67973 4.25267C9.69621 4.9813 9.96051 5.5238 10.3457 5.8845C10.7321 6.24611 11.2434 6.42753 11.7549 6.42747C12.2663 6.42732 12.7769 6.24605 13.1631 5.8845C13.5484 5.52377 13.8128 4.98119 13.8291 4.25267C13.813 3.52314 13.5487 2.97987 13.1631 2.61888C12.7767 2.2573 12.2655 2.07585 11.7539 2.07591Z" fill="var(--fill-0, #211E20)" stroke="var(--stroke-0, black)" stroke-width="0.1"/>
</g>
<defs>
<clipPath id="clip0_0_16">
<rect width="16" height="16" fill="white"/>
</clipPath>
</defs>
</svg>
