<svg preserveAspectRatio="none" width="100%" height="100%" overflow="visible" style="display: block;" viewBox="0 0 16 16" fill="none" xmlns="http://www.w3.org/2000/svg">
<g id="Icons/Arrow.pointing.into.tray" clip-path="url(#clip0_0_14)">
<path id="Vector" d="M4.55997 0.947486V2.04807H3.50821C2.76601 2.02904 2.08413 2.67687 2.06485 3.41917L2.05997 6.42796L2.06485 7.94749H5.5336L5.53946 7.99046C5.54173 8.00633 5.54542 8.02413 5.54923 8.04319C5.55278 8.06096 5.55629 8.08038 5.55899 8.09885L5.61173 8.426C5.62741 8.5362 5.6417 8.64696 5.65567 8.75706C5.68369 8.97779 5.71159 9.19607 5.74942 9.40354C5.81582 9.76748 5.91326 10.0925 6.09708 10.3381L6.18106 10.4387L6.18399 10.4416C6.63975 11.015 7.31078 11.3323 7.98966 11.3225H8.01017C8.68905 11.3322 9.36008 11.015 9.81583 10.4416L9.81876 10.4387C10.068 10.1726 10.1838 9.78659 10.2592 9.34885C10.2968 9.13053 10.3234 8.90174 10.3529 8.67112C10.3824 8.4412 10.4147 8.2096 10.4613 7.98753L10.4692 7.94749H13.9545C13.9642 6.43947 13.9653 4.93222 13.9604 3.49827V3.49631C13.9784 2.79591 13.4097 2.15688 12.727 2.0637L12.5883 2.05296H11.4604V0.953346L11.5092 0.952369H12.6469C13.9638 0.993437 15.0847 2.1808 15.06 3.49729V9.5676L15.0551 12.6282V12.6291C15.0142 13.9464 13.8268 15.0669 12.5102 15.0471V15.0481H6.43985L3.38028 15.053H3.37833C2.13411 15.0146 1.06219 13.9684 0.949619 12.7444L0.939853 12.4973C0.949853 10.4722 0.965244 5.32237 0.965244 3.36253V3.36057C1.01141 2.04373 2.19324 0.923354 3.51017 0.948463V0.947486H4.55997ZM2.0795 12.4973C2.08432 13.2299 2.73226 13.8659 3.43399 13.8664C6.37455 13.8114 9.58997 13.8225 12.5102 13.8625H12.5121C13.2139 13.8863 13.8698 13.2891 13.9047 12.5725L13.9486 9.04807H11.0649C11.0692 9.44573 11.068 9.85387 11.0092 10.1428C10.754 11.5427 9.39705 12.5669 8.01017 12.5471V12.5481H7.98966V12.5471C6.60278 12.5669 5.24578 11.5427 4.99063 10.1428L4.95548 9.89475C4.93134 9.64174 4.93178 9.34207 4.93497 9.04807H2.06974L2.0795 12.4973ZM8.6254 0.947486V0.998268C8.61588 3.76606 8.56 4.06108 8.44767 6.801L8.59903 6.85276C9.33787 5.84902 10.1524 4.89943 11.0346 4.02171L11.0697 3.98655L11.1049 4.02171L11.9008 4.81663L11.9359 4.85276L11.9008 4.88792L8.2504 8.53245L8.23575 8.5471H7.78458L7.76993 8.53245L4.11954 4.88792L4.08438 4.85276L4.11954 4.81663L4.94962 3.98655L4.98478 4.02171C5.86675 4.89922 6.6806 5.8493 7.41935 6.85276L7.57071 6.801C7.45833 4.06114 7.4044 3.76604 7.39493 0.998268V0.947486H8.6254Z" fill="var(--fill-0, #211E20)" stroke="var(--stroke-0, black)" stroke-width="0.1"/>
</g>
<defs>
<clipPath id="clip0_0_14">
<rect width="16" height="16" fill="white"/>
</clipPath>
</defs>
</svg>
