<svg preserveAspectRatio="none" width="100%" height="100%" overflow="visible" style="display: block;" viewBox="0 0 16 16" fill="none" xmlns="http://www.w3.org/2000/svg">
<g id="Icons/Three.dots.horizontal">
<path id="Vector" d="M4 6.9502C4.5799 6.9502 5.0498 7.4201 5.0498 8C5.0498 8.5799 4.5799 9.0498 4 9.0498C3.4201 9.0498 2.9502 8.5799 2.9502 8C2.9502 7.4201 3.4201 6.9502 4 6.9502ZM8 6.9502C8.5799 6.9502 9.0498 7.4201 9.0498 8C9.0498 8.5799 8.5799 9.0498 8 9.0498C7.4201 9.0498 6.9502 8.5799 6.9502 8C6.9502 7.4201 7.4201 6.9502 8 6.9502ZM12 6.9502C12.5799 6.9502 13.0498 7.4201 13.0498 8C13.0498 8.5799 12.5799 9.0498 12 9.0498C11.4201 9.0498 10.9502 8.5799 10.9502 8C10.9502 7.4201 11.4201 6.9502 12 6.9502Z" fill="var(--fill-0, #211E20)" stroke="var(--stroke-0, #211E20)" stroke-width="0.1"/>
</g>
</svg>
