<svg preserveAspectRatio="none" width="100%" height="100%" overflow="visible" style="display: block;" viewBox="0 0 16 16" fill="none" xmlns="http://www.w3.org/2000/svg">
<g id="Icons/Dot.in.left.window">
<path id="Rectangle 34625588 (Stroke)" d="M11.7998 13.7998V15H4.2002V13.7998H11.7998ZM13.7998 11.7998V9.2002C13.7998 8.6205 13.7987 8.25765 13.7764 7.98438C13.7552 7.72508 13.7213 7.65327 13.7129 7.63672C13.6362 7.48622 13.5138 7.3638 13.3633 7.28711C13.3467 7.27868 13.2749 7.24482 13.0156 7.22363C12.7423 7.20132 12.3795 7.2002 11.7998 7.2002H4.2002C3.6205 7.2002 3.25765 7.20132 2.98438 7.22363C2.72508 7.24482 2.65327 7.27868 2.63672 7.28711C2.48622 7.3638 2.3638 7.48622 2.28711 7.63672C2.27868 7.65327 2.24482 7.72508 2.22363 7.98438C2.20132 8.25765 2.2002 8.6205 2.2002 9.2002V11.7998C2.2002 12.3795 2.20132 12.7423 2.22363 13.0156C2.24482 13.2749 2.27868 13.3467 2.28711 13.3633C2.3638 13.5138 2.48622 13.6362 2.63672 13.7129C2.65327 13.7213 2.72508 13.7552 2.98438 13.7764C3.25765 13.7987 3.6205 13.7998 4.2002 13.7998V15L3.45801 14.9971C2.91644 14.9886 2.55193 14.9578 2.25977 14.8535L2.0918 14.7822C1.76256 14.6145 1.48707 14.3592 1.29492 14.0459L1.21777 13.9082C0.999786 13.4804 1 12.9199 1 11.7998V9.2002C1 8.08009 0.999786 7.51962 1.21777 7.0918C1.40951 6.71554 1.71554 6.40951 2.0918 6.21777C2.41263 6.0543 2.80803 6.01315 3.45801 6.00293L4.2002 6H11.7998C12.9199 6 13.4804 5.99979 13.9082 6.21777C14.2845 6.40951 14.5905 6.71554 14.7822 7.0918C15.0002 7.51962 15 8.08009 15 9.2002V11.7998C15 12.9199 15.0002 13.4804 14.7822 13.9082L14.7051 14.0459C14.5129 14.3592 14.2374 14.6145 13.9082 14.7822L13.7402 14.8535C13.3311 14.9995 12.7798 15 11.7998 15V13.7998C12.3795 13.7998 12.7423 13.7987 13.0156 13.7764C13.2749 13.7552 13.3467 13.7213 13.3633 13.7129C13.5138 13.6362 13.6362 13.5138 13.7129 13.3633C13.7213 13.3467 13.7552 13.2749 13.7764 13.0156C13.7987 12.7423 13.7998 12.3795 13.7998 11.7998Z" fill="var(--fill-0, #211E20)"/>
<path id="Rectangle 34625589" d="M3 3.49995H13V4.69995H3V3.49995Z" fill="var(--fill-0, #211E20)"/>
<path id="Rectangle 34625590" d="M4 1H12V2.2H4V1Z" fill="var(--fill-0, #211E20)"/>
</g>
</svg>
