<svg preserveAspectRatio="none" width="100%" height="100%" overflow="visible" style="display: block;" viewBox="0 0 16 16" fill="none" xmlns="http://www.w3.org/2000/svg">
<g id="Icons/Two.human.silhouettes" clip-path="url(#clip0_0_24)">
<path id="Vector" d="M6.45895 5.05698C6.20011 5.0533 5.94974 5.07668 5.70992 5.12631L5.47359 5.18491C4.11945 5.55422 3.13485 6.7249 3.13473 8.2562C3.13473 9.42319 3.73014 10.4031 4.63082 10.9593H4.6318C4.97122 11.1708 5.35999 11.3229 5.77828 11.3968L5.78023 11.3978C5.99626 11.442 6.22749 11.4613 6.45895 11.4564H6.45992C7.52261 11.4564 8.32981 11.0913 8.88473 10.5365L9.08004 10.3226C9.50785 9.80557 9.74686 9.15799 9.79 8.49838C9.84916 7.6751 9.6112 6.83162 9.07906 6.18686C8.54753 5.543 7.72004 5.09401 6.59371 5.06186L6.5898 5.06088C6.54801 5.05624 6.50537 5.05698 6.45992 5.05698H6.45895ZM9.95895 2.05698C8.58297 2.03773 7.40556 2.79379 6.8984 3.95835C7.82579 4.03118 8.74215 4.35648 9.50777 4.96909L9.66305 5.09897C10.5781 5.92447 11.0269 7.1249 11.0097 8.31577C12.6827 7.8612 13.4413 6.31664 13.2793 4.87143C13.1973 4.14043 12.8799 3.43748 12.3281 2.91733C11.7767 2.39764 10.9883 2.05821 9.95992 2.05698H9.95895ZM15.2597 12.223L15.2236 12.2337L14.9931 12.2982L14.956 12.308L14.9365 12.2757C14.7244 11.9181 14.4558 11.6127 14.0761 11.4574H14.0742C12.9085 10.9239 11.6396 10.6255 10.3603 10.5775C10.1708 10.8816 9.9392 11.1668 9.66305 11.4134V11.4144C9.12263 11.8903 8.48991 12.2044 7.82809 12.3832L7.8398 12.5433C8.82597 12.6711 9.76126 12.9347 10.5224 13.3363C11.294 13.7433 11.8909 14.2936 12.1767 14.9876L12.205 15.057H10.875L10.8593 15.0355C10.8184 14.9792 10.7863 14.9332 10.75 14.8968C10.231 14.3978 9.51863 14.0788 8.75387 13.8763C7.99006 13.6741 7.17747 13.5885 6.45992 13.556C5.74237 13.5885 4.92977 13.674 4.16598 13.8763C3.40095 14.0789 2.68891 14.3985 2.16988 14.8978L2.16891 14.8968C2.13192 14.9339 2.09546 14.9817 2.06246 15.0335L2.04781 15.057H0.714805L0.744102 14.9876C1.14198 14.0338 2.10768 13.3461 3.32418 12.9339C3.76703 12.783 4.24501 12.6676 4.73727 12.5873L5.09078 12.5374C5.09232 12.4972 5.09372 12.4767 5.09469 12.4564C5.09567 12.4357 5.09601 12.415 5.09762 12.3724C5.03063 12.354 4.9665 12.3346 4.90426 12.3138V12.3128C4.5512 12.2018 4.20767 12.0515 3.89449 11.8646C2.70134 11.1517 1.86567 9.91156 1.91012 8.25815L1.90914 8.0394C1.9575 5.8199 3.63288 4.3843 5.55562 4.02768C5.97513 2.49384 7.25407 1.47152 8.73336 1.09995C10.2226 0.725903 11.9215 1.00914 13.163 2.09897L13.3271 2.25522C14.9638 3.90978 14.9089 6.84416 13.163 8.41342V8.4144C12.6319 8.87604 12.0126 9.19466 11.3593 9.37827L11.3711 9.54135C12.8951 9.71033 14.3141 10.1557 15.2412 10.8773L15.2597 10.8919V12.223Z" fill="var(--fill-0, #211E20)" stroke="var(--stroke-0, black)" stroke-width="0.1"/>
</g>
<defs>
<clipPath id="clip0_0_24">
<rect width="16" height="16" fill="white"/>
</clipPath>
</defs>
</svg>
