<!-- Figma App — Arcade v0.3 SOR: backlog table row Selector «Selected» (frame ~5938:41973 → asset 5926:41199). -->
<svg preserveAspectRatio="xMidYMid meet" width="16" height="16" viewBox="0 0 16 16" fill="none" xmlns="http://www.w3.org/2000/svg">
  <path
    d="M0.909179 8.00021C0.908565 1.70897 8.58187 -1.469 13.0293 2.9797H13.0283C15.7773 5.61735 15.7778 10.3818 13.0283 13.0197L13.0293 13.0207C8.58159 17.4694 0.908283 14.291 0.909179 8.00021ZM11.002 4.54708C8.36801 7.18842 7.01158 10.3062 6.6123 11.343L6.51758 11.3449C6.12712 10.5473 5.64043 9.80178 5.06348 9.12716L4.99902 9.05197L4.92285 9.11642L4.06836 9.84103L3.99219 9.90548L6.14648 12.4475L6.17676 12.4826H7.08789L7.11426 12.4231C8.24376 9.9004 9.99188 7.45513 11.9395 5.48263L12.0088 5.41232L11.0723 4.47579L11.002 4.54708Z"
    fill="#211E20"
  />
</svg>
