<svg preserveAspectRatio="none" width="100%" height="100%" overflow="visible" style="display: block;" viewBox="6 5.5 16 16" fill="none" xmlns="http://www.w3.org/2000/svg">
<path d="M8.20019 17.2998L7 17.2998L7 9.7002L8.2002 9.7002L8.20019 17.2998ZM10.2002 19.2998L17.7998 19.2998C18.3795 19.2998 18.7423 19.2987 19.0156 19.2764C19.2749 19.2552 19.3467 19.2213 19.3633 19.2129C19.5138 19.1362 19.6362 19.0138 19.7129 18.8633C19.7213 18.8467 19.7552 18.7749 19.7764 18.5156C19.7987 18.2423 19.7998 17.8795 19.7998 17.2998L19.7998 9.7002C19.7998 9.1205 19.7987 8.75765 19.7764 8.48437C19.7552 8.22508 19.7213 8.15327 19.7129 8.13672C19.6362 7.98622 19.5138 7.8638 19.3633 7.78711C19.3467 7.77868 19.2749 7.74482 19.0156 7.72363C18.7423 7.70132 18.3795 7.7002 17.7998 7.7002L10.2002 7.7002C9.6205 7.7002 9.25765 7.70132 8.98437 7.72363C8.72508 7.74482 8.65327 7.77868 8.63672 7.78711C8.48622 7.8638 8.3638 7.98622 8.28711 8.13672C8.27868 8.15327 8.24482 8.22508 8.22363 8.48437C8.20132 8.75765 8.2002 9.1205 8.2002 9.7002L7 9.7002L7.00293 8.95801C7.01145 8.41644 7.04222 8.05193 7.14648 7.75977L7.21777 7.5918C7.38555 7.26256 7.64085 6.98707 7.9541 6.79492L8.0918 6.71777C8.51962 6.49979 9.08009 6.5 10.2002 6.5L17.7998 6.5C18.9199 6.5 19.4804 6.49979 19.9082 6.71777C20.2845 6.90951 20.5905 7.21554 20.7822 7.5918C20.9457 7.91263 20.9868 8.30803 20.9971 8.95801L21 9.7002L21 17.2998C21 18.4199 21.0002 18.9804 20.7822 19.4082C20.5905 19.7845 20.2845 20.0905 19.9082 20.2822C19.4804 20.5002 18.9199 20.5 17.7998 20.5L10.2002 20.5C9.08009 20.5 8.51962 20.5002 8.0918 20.2822L7.9541 20.2051C7.64085 20.0129 7.38555 19.7374 7.21777 19.4082L7.14648 19.2402C7.00049 18.8311 7 18.2798 7 17.2998L8.20019 17.2998C8.20019 17.8795 8.20132 18.2423 8.22363 18.5156C8.24482 18.7749 8.27868 18.8467 8.28711 18.8633C8.3638 19.0138 8.48622 19.1362 8.63672 19.2129C8.65327 19.2213 8.72508 19.2552 8.98437 19.2764C9.25765 19.2987 9.6205 19.2998 10.2002 19.2998Z" fill="var(--fill-0, #211E20)"/>
<path d="M16.2002 7.5L16.2002 19.5L15.0002 19.5L15.0002 7.5L16.2002 7.5Z" fill="var(--fill-0, #211E20)"/>
</svg>
